# xmcd
#
# Track frame offsets:
#	150
#	18385
#	34147
#	48967
#	61352
#	76622
#	96426
#	108654
#	123002
#	139950
#	156046
#	174990
#
# Disc length: 2558 seconds
#
# Revision: 1
# Processed by: cddbd v1.4PL0 Copyright (c) Steve Scherf et al.
# Submitted via: audiograbber 1.82.02
#
DISCID=9309fc0c
DTITLE=Jérémy Chatelain - Nouveau né
DYEAR=2003
DGENRE=Blues
TTITLE0=Vivre ca
TTITLE1=Parce que vous le faites
TTITLE2=C'est ca ma vie
TTITLE3=J'aimerai
TTITLE4=Je m'envole
TTITLE5=Harold et Maud
TTITLE6=Je m'en fou
TTITLE7=Amour com
TTITLE8=Georgy
TTITLE9=Belle histoire
TTITLE10=Porte dauphine
TTITLE11=Laisse moi
EXTD=
EXTT0=
EXTT1=
EXTT2=
EXTT3=
EXTT4=
EXTT5=
EXTT6=
EXTT7=
EXTT8=
EXTT9=
EXTT10=
EXTT11=
PLAYORDER=
